
<svg xmlns="http://www.w3.org/2000/svg" viewBox="0 0 48 48"><g fill='#FFFFFF'><path fill='#FF00A7' d="M29 34h-7c-.6 0-1-.4-1-1v-8c0-.6.4-1 1-1h7c.6 0 1 .4 1 1v8c0 .6-.4 1-1 1z"></path><path d="M18 32h-7c-.5 0-1 .5-1 1s.5 1 1 1h7c.5 0 1-.5 1-1s-.5-1-1-1zm0-4h-7c-.5 0-1 .5-1 1s.5 1 1 1h7c.5 0 1-.5 1-1s-.5-1-1-1zm0-4h-7c-.5 0-1 .5-1 1s.5 1 1 1h7c.5 0 1-.5 1-1s-.5-1-1-1zm22-6h-6v-6c0-1.1-.9-2-2-2H8c-1.1 0-2 .9-2 2v21c0 2.8 2.3 5 5 5h26c2.8 0 5-2.3 5-5V20c0-1.1-.9-2-2-2zM8 33V12h24v21c0 1.1.4 2.2 1 3H11c-1.7 0-3-1.3-3-3zm32 0c0 1.7-1.3 3-3 3s-3-1.3-3-3V20h6v13zM29 14H11c-.6 0-1 .4-1 1v6c0 .6.4 1 1 1h18c.6 0 1-.4 1-1v-6c0-.6-.4-1-1-1zm-1 6H12v-4h16v4z"></path></g></svg>
