
<svg xmlns="http://www.w3.org/2000/svg" viewBox="0 0 48 48"><g fill='#FFFFFF'><circle fill='#F60202' cx="24" cy="24" r="6"></circle><path d="M24 8c8.8 0 16 7.2 16 16 0 9.2-8.4 16-16 16-7.8 0-14.2-5.3-15.7-12.9-.1-.3.1-.6.2-.7.2-.3.5-.4.8-.4.5 0 .9.4 1 .8C11.6 33.3 17.4 38 24 38c7.7 0 14-6.3 14-14s-6.3-14-14-14c-3.7 0-7.2 1.5-9.9 4.1l-1.4 1.4 2.5 2.5H8v-7.2l3.3 3.3 1.4-1.4c3-3 7-4.7 11.3-4.7m0-2c-5 0-9.5 2-12.7 5.3L7.7 7.7c-.2-.2-.4-.3-.7-.3-.5 0-1 .4-1 1V19c0 .6.4 1 1 1h10.6c.9 0 1.3-1.1.7-1.7l-2.8-2.8c2.2-2.2 5.2-3.5 8.5-3.5 6.6 0 12 5.4 12 12s-5.4 12-12 12c-5.8 0-10.6-4.1-11.8-9.6C12 25 10.7 24 9.3 24c-1.8 0-3.3 1.7-2.9 3.5C8 35.8 15 42 24 42s18-8.1 18-18S34 6 24 6z"></path></g></svg>
