
<svg xmlns="http://www.w3.org/2000/svg" viewBox="0 0 48 48"><g fill='#FFFFFF'><path d="M29 11c-1.8 0-3.5.4-5 1-1.5-.6-3.2-1-5-1-7.2 0-13 5.8-13 13s5.8 13 13 13c1.8 0 3.5-.4 5-1 1.5.6 3.2 1 5 1 7.2 0 13-5.8 13-13s-5.8-13-13-13zM19 35c-6.1 0-11-4.9-11-11s4.9-11 11-11c.9 0 1.8.1 2.6.3C18.2 15.7 16 19.6 16 24s2.2 8.3 5.6 10.7c-.8.2-1.7.3-2.6.3zm5-20.8c3.6 1.8 6 5.5 6 9.8s-2.4 8-6 9.8c-3.6-1.8-6-5.5-6-9.8s2.4-8 6-9.8zM29 35c-.9 0-1.8-.1-2.6-.3C29.8 32.3 32 28.4 32 24s-2.2-8.3-5.6-10.7c.8-.2 1.7-.3 2.6-.3 6.1 0 11 4.9 11 11s-4.9 11-11 11z"></path><path fill='#FF00A7' d="M10 24c0-4.2 2.9-7.7 6.8-8.7-1.7 2.4-2.8 5.4-2.8 8.7s1.1 6.3 2.8 8.7c-3.9-1-6.8-4.5-6.8-8.7z"></path></g></svg>
